<svg width="932" height="1002" viewBox="0 0 932 1002" fill="none" xmlns="http://www.w3.org/2000/svg">
<path d="M679.5 314C679.5 446.381 570.257 554.5 434.5 554.5C298.743 554.5 189.5 446.381 189.5 314C189.5 181.619 298.743 73.5 434.5 73.5C570.257 73.5 679.5 181.619 679.5 314Z" stroke="white" stroke-width="57"/>
<path d="M54 103C59.11 129.592 97.4574 182.775 209.967 182.775C350.604 182.775 375.499 221.539 371.5 353" stroke="white" stroke-width="57" stroke-linecap="round"/>
<circle cx="254" cy="296" r="54" fill="white"/>
<path d="M689.286 103C684.176 129.592 645.829 182.775 533.319 182.775C392.683 182.775 368.287 221.539 372.286 353" stroke="white" stroke-width="57" stroke-linecap="round"/>
<circle cx="54" cy="54" r="54" transform="matrix(-1 0 0 1 537 242)" fill="white"/>
<path d="M125 758.5C109.26 758.5 96.5 771.26 96.5 787C96.5 802.74 109.26 815.5 125 815.5L125 758.5ZM275 815.5L303.5 815.5L303.5 758.5L275 758.5L275 815.5ZM125 815.5L275 815.5L275 758.5L125 758.5L125 815.5Z" fill="white"/>
<path d="M200 583C214 701.825 305.556 889 659 889" stroke="white" stroke-width="57" stroke-linecap="round"/>
<path d="M659 889V598" stroke="white" stroke-width="57" stroke-linecap="round"/>
<path d="M668 758.5H639.5V815.5H668V758.5ZM801 815.5C816.74 815.5 829.5 802.74 829.5 787C829.5 771.26 816.74 758.5 801 758.5V815.5ZM668 815.5H801V758.5H668V815.5Z" fill="white"/>
</svg>
