<svg width="1000" height="1000" viewBox="0 0 1000 1000" fill="none" xmlns="http://www.w3.org/2000/svg">
<path d="M751.5 347C751.5 479.381 642.257 587.5 506.5 587.5C370.743 587.5 261.5 479.381 261.5 347C261.5 214.619 370.743 106.5 506.5 106.5C642.257 106.5 751.5 214.619 751.5 347Z" stroke="white" stroke-width="57"/>
<path d="M126 136C131.11 162.592 169.457 215.775 281.967 215.775C422.604 215.775 447.499 254.539 443.5 386" stroke="white" stroke-width="57" stroke-linecap="round"/>
<circle cx="346.5" cy="317.5" r="38.5" fill="white"/>
<path d="M760 136C754.89 162.592 716.543 215.775 604.033 215.775C463.396 215.775 439.001 254.539 443 386" stroke="white" stroke-width="57" stroke-linecap="round"/>
<circle cx="38.5" cy="38.5" r="38.5" transform="matrix(-1 0 0 1 578 279)" fill="white"/>
<path d="M197 791.5C181.26 791.5 168.5 804.26 168.5 820C168.5 835.74 181.26 848.5 197 848.5L197 791.5ZM347 848.5L375.5 848.5L375.5 791.5L347 791.5L347 848.5ZM197 848.5L347 848.5L347 791.5L197 791.5L197 848.5Z" fill="white"/>
<path d="M272 631C286 744 377.556 922 731 922" stroke="white" stroke-width="57" stroke-linecap="round"/>
<path d="M731 922V631" stroke="white" stroke-width="57" stroke-linecap="round"/>
<path d="M740 791.5H711.5V848.5H740V791.5ZM873 848.5C888.74 848.5 901.5 835.74 901.5 820C901.5 804.26 888.74 791.5 873 791.5V848.5ZM740 848.5H873V791.5H740V848.5Z" fill="white"/>
</svg>
